<?xml version="1.0" standalone="no"?>
<!DOCTYPE svg PUBLIC "-//W3C//DTD SVG 20010904//EN"
 "http://www.w3.org/TR/2001/REC-SVG-20010904/DTD/svg10.dtd">
<svg version="1.0" xmlns="http://www.w3.org/2000/svg"
 width="2048.000000pt" height="2048.000000pt" viewBox="0 0 2048.000000 2048.000000"
 preserveAspectRatio="xMidYMid meet">

<g transform="translate(0.000000,2048.000000) scale(0.100000,-0.100000)"
fill="#000000" stroke="none">
<path d="M6492 16328 l3 -543 29 -58 c33 -64 102 -135 162 -165 21 -11 120
-42 219 -70 2061 -579 2023 -568 2235 -670 531 -254 887 -731 1059 -1417 l37
-150 23 100 c53 230 144 483 233 645 250 459 629 769 1147 940 182 60 243 77
971 280 821 229 1135 320 1187 346 66 32 135 108 165 182 23 57 23 60 26 590
2 292 0 532 -4 532 -4 0 -57 -29 -118 -64 -124 -71 -286 -162 -746 -421 -462
-260 -456 -257 -825 -460 -187 -103 -398 -220 -470 -260 -71 -40 -215 -119
-320 -175 -264 -143 -512 -283 -623 -352 -235 -146 -433 -318 -583 -506 -32
-40 -62 -71 -66 -70 -4 2 -23 23 -42 48 -201 265 -456 461 -951 734 -1141 628
-1369 755 -1600 886 -288 164 -990 555 -1128 629 l-23 12 3 -543z"/>
<path d="M7028 14928 c-305 -351 -491 -770 -544 -1222 -19 -162 -14 -405 11
-571 123 -807 693 -1477 1476 -1733 278 -92 486 -123 779 -117 178 3 317 20
470 55 126 30 292 82 296 95 3 6 -45 119 -105 252 -146 321 -149 326 -169 318
-63 -24 -149 -49 -231 -68 -133 -29 -482 -32 -611 -4 -140 30 -268 75 -405
142 -614 301 -956 991 -824 1660 77 392 279 717 597 962 l93 72 -43 11 c-69
18 -628 178 -719 206 -11 3 -35 -17 -71 -58z"/>
<path d="M13325 14970 c-33 -10 -199 -57 -370 -105 -170 -47 -316 -88 -323
-91 -8 -2 23 -33 75 -73 276 -217 442 -445 543 -750 61 -181 75 -275 75 -496
0 -209 -12 -292 -66 -470 -169 -554 -674 -983 -1254 -1065 -210 -29 -502 -4
-690 59 -49 16 -92 28 -95 26 -7 -4 -180 -365 -239 -498 l-31 -68 36 -15 c19
-8 90 -30 156 -50 568 -163 1159 -108 1680 157 214 109 386 236 566 418 306
309 503 697 587 1156 22 122 31 459 16 595 -40 346 -166 698 -350 976 -65 98
-230 306 -246 310 -5 1 -37 -6 -70 -16z"/>
<path d="M11780 10452 c-458 -285 -911 -627 -1197 -906 l-123 -119 0 -2243 0
-2242 218 125 c738 426 1564 907 2272 1326 195 115 432 255 525 310 94 55 229
135 300 177 72 42 221 130 333 194 111 65 204 121 206 125 4 6 -124 191 -263
381 -26 36 -95 130 -152 210 -119 165 -331 457 -459 635 -48 66 -266 370 -485
675 -442 615 -549 765 -640 890 -34 47 -135 187 -225 313 -90 125 -168 227
-174 227 -6 0 -67 -35 -136 -78z"/>
<path d="M8613 10498 c-17 -19 -311 -422 -693 -948 -115 -159 -493 -676 -613
-840 -59 -80 -178 -241 -265 -359 -86 -118 -194 -264 -239 -325 -194 -264
-594 -816 -598 -828 -4 -9 148 -102 457 -282 255 -148 578 -337 718 -419 140
-82 374 -219 520 -305 522 -305 680 -398 1000 -588 465 -274 1112 -654 1116
-654 2 0 4 1009 4 2243 l0 2242 -112 111 c-294 288 -638 560 -1091 862 -92 62
-171 112 -176 112 -4 0 -17 -10 -28 -22z"/>
</g>
</svg>
